<svg width="131" height="58" viewBox="0 0 131 58" fill="none" xmlns="http://www.w3.org/2000/svg">
<path d="M103.01 52.4101L98.31 47.2201L118.92 28.5801L98.39 11.07L102.93 5.74005L129.53 28.42L103.01 52.4101Z" fill="#C083DA" stroke="#C083DA"/>
<path d="M27.71 52.4701L1.12 29.7901L27.63 5.81006L32.33 11.0001L11.72 29.6401L32.25 47.1501L27.71 52.4701Z" fill="#C083DA" stroke="#C083DA"/>
<path d="M48.6 48.25C50.94 48.9 53.33 49.43 55.79 49.83C58.25 50.23 60.65 50.43 62.98 50.43C65.5 50.43 67.57 50.21 69.18 49.78C70.8 49.34 72.12 48.75 73.14 47.99C74.16 47.23 74.88 46.3 75.3 45.22C75.72 44.13 75.93 42.97 75.93 41.74C75.93 40.36 75.75 39.22 75.39 38.31C75.03 37.4 74.37 36.61 73.41 35.92C72.45 35.23 71.15 34.56 69.5 33.91C67.85 33.26 65.71 32.5 63.07 31.63C60.37 30.69 58.08 29.8 56.19 28.97C54.3 28.14 52.76 27.16 51.56 26.03C50.36 24.91 49.48 23.57 48.91 22.01C48.34 20.45 48.06 18.55 48.06 16.3C48.06 11.44 49.65 7.75002 52.83 5.21002C56.01 2.67002 60.68 1.40002 66.86 1.40002C67.94 1.40002 69.03 1.45002 70.14 1.56002C71.25 1.67002 72.36 1.80002 73.47 1.94002C74.58 2.09002 75.66 2.29002 76.71 2.54002C77.76 2.79002 78.76 3.07002 79.72 3.36002L79.71 9.63002C77.73 9.05002 74.82 8.63002 72.76 8.30002C70.69 7.97002 68.61 7.81002 66.51 7.81002C62.25 7.81002 59.24 8.48002 57.47 9.82002C55.7 11.16 54.82 13.14 54.82 15.75C54.82 16.98 55 18 55.36 18.8C55.72 19.6 56.36 20.34 57.29 21.03C58.22 21.72 59.46 22.37 61.02 22.99C62.58 23.61 64.62 24.31 67.13 25.11C69.95 26.05 72.34 26.96 74.32 27.83C76.3 28.7 77.92 29.72 79.18 30.87C80.44 32.03 81.35 33.43 81.92 35.06C82.49 36.69 82.77 38.74 82.77 41.2C82.77 46.06 81.18 49.88 78.01 52.67C74.83 55.46 69.68 56.86 62.54 56.86C59.96 56.86 57.46 56.68 55.03 56.32C52.6 55.96 50.22 55.41 47.88 54.69L48.6 48.25Z" fill="#C083DA" stroke="#C083DA"/>
</svg>
